<?xml version="1.0" ?><!DOCTYPE svg  PUBLIC '-//W3C//DTD SVG 1.1//EN'  'http://www.w3.org/Graphics/SVG/1.1/DTD/svg11.dtd'><svg enable-background="new 0 0 512 512" height="512px" id="Beer" version="1.1" viewBox="0 0 512 512" width="512px" xml:space="preserve" xmlns="http://www.w3.org/2000/svg" xmlns:xlink="http://www.w3.org/1999/xlink"><circle cx="256" cy="256" fill="#F5AB35" r="256"/><linearGradient gradientTransform="matrix(1 0 0 -1 -41.6602 348.04)" gradientUnits="userSpaceOnUse" id="SVGID_1_" x1="475.3496" x2="249.2643" y1="-92.3096" y2="133.7757"><stop offset="0" style="stop-color:#F5AB35"/><stop offset="0.1715" style="stop-color:#D29638;stop-opacity:0.9143"/><stop offset="0.5721" style="stop-color:#86693E;stop-opacity:0.7139"/><stop offset="0.8582" style="stop-color:#554D42;stop-opacity:0.5709"/><stop offset="1" style="stop-color:#434244;stop-opacity:0.5"/></linearGradient><path d="M512,256c0-9.278-0.506-18.436-1.469-27.458L351.93,69.94L141.36,436.672l71.728,71.729  c13.954,2.355,28.287,3.6,42.912,3.6C397.385,512,512,397.386,512,256z" fill="url(#SVGID_1_)"/><g><path d="M455.371,234.008c-2.52-23.814-6.595-58.22-14.163-76.318s-16.819-22.75-30.673-24.488   c-13.854-1.738-29.49-0.418-38.216-0.903c-5.384-0.299-8.268-4.024-9.689-6.837c-0.067-20.369-0.258-34.067-0.654-34.519   c-1.156-1.318-72.503-2.576-106.03-2.576s-104.874,1.258-106.031,2.576c-1.412,1.608-0.202,171.483-0.202,212.018   s-11.296,107.523-13.112,115.178c-1.816,7.653-2.798,9.313,3.429,17.146c13.147,16.541,87.745,21.483,115.916,21.483   c28.171,0,102.768-4.942,115.916-21.483c6.229-7.835,5.246-9.494,3.43-17.146c-0.665-2.803-2.601-13.563-4.787-28.061   c2.037-6.236,5.648-14.111,11.445-17.049c10.176-5.157,40.715-22.563,53.262-30.391c12.547-7.828,16.996-17.728,18.958-35.207   C456.131,289.951,458.24,261.135,455.371,234.008z M416.086,320.061c-10.674,6.361-28.355,16.82-38.651,18.666   c-5.324,0.953-10.489-5.141-14.237-11.246c-0.637-8.711-1.02-17.063-1.02-24.52c0-22.117,0.36-82.74,0.458-133.527   c3.339-4.764,7.927-10.227,11.488-10.354c6.341-0.228,13.821-0.204,25.143-0.096c11.322,0.108,15.957,5.175,18.189,14.238   c2.231,9.063,8.927,43.657,10.06,65.865c1.617,31.699-1.634,60.22-1.634,60.22S426.459,313.879,416.086,320.061z" fill="#E4F1FE"/><path d="M359.628,194.786h0.08v-73.429H152.292v73.429h0.081c-0.024,12.158-0.302,161.055,0.333,173.129   c0.556,10.56,36.53,26.64,103.294,26.64c66.764,0,102.738-16.08,103.294-26.64C359.93,355.841,359.651,206.944,359.628,194.786z" fill="#FFC30F"/><circle cx="191.932" cy="249.492" fill="#FFD659" r="4.83"/><circle cx="240.796" cy="298.924" fill="#FFD659" r="4.83"/><circle cx="252.727" cy="226.197" fill="#FFD659" r="4.829"/><circle cx="306.136" cy="334.72" fill="#FFD659" r="4.83"/><circle cx="195.909" cy="341.538" fill="#FFD659" r="4.829"/><circle cx="283.364" cy="276.402" fill="#FFD659" r="4.829"/><circle cx="326.545" cy="224.697" fill="#FFD659" r="4.83"/><circle cx="231.659" cy="257.652" fill="#FFD659" r="4.829"/><circle cx="178.296" cy="220.515" fill="#FFD659" r="4.829"/><circle cx="250.454" cy="360.856" fill="#FFD659" r="4.829"/><circle cx="173.75" cy="288.697" fill="#FFD659" r="4.829"/><circle cx="326.591" cy="290.401" fill="#FFD659" r="4.829"/><circle cx="297.566" cy="240.606" fill="#FFD659" r="4.829"/><path d="M359.708,115.594c1.041-2.679,1.637-5.572,1.688-8.667c0.021-1.357-0.095-2.719-0.325-4.08   c0.057-0.804,0.092-1.616,0.092-2.438c0-15.393-5.232-36.26-22.091-35.661c-3.118,0.111-6.45,1.284-9.616,3.254   c-8.667-4.58-17.597-7.371-24.656-7.371c-4.438,0-8.325,1.069-11.696,2.935c-7.418-5.201-16.975-8.336-27.408-8.336   c-9.959,0-21.918,2.954-32.418,7.843c-6.826-3.808-15.098-6.043-24.02-6.043c-9.624,0-18.815,2.925-26.874,7.511   c-2.88-1.696-6.05-2.639-9.381-2.639c-13.18,0-20.955,15.013-21.137,33.154c-0.052,5.21,0.095,9.583,0.428,13.261v19.581H152.1   v39.534c0,0,0.899,10.14,12.591,10.14s13.851-10.14,13.851-10.14v-9.483c1.62,2.656,4.781,5.452,10.921,5.452   c8.102,0,11.624-4.866,13.024-7.856v24.388c0,0,0.843,11.147,11.805,11.147s12.985-11.147,12.985-11.147v-11.625   c1.692,2.16,4.522,4.069,9.246,4.069c8.607,0,11.664-6.332,12.568-8.987v11.714c0,0,0.798,10.141,11.175,10.141   c10.377,0,12.293-10.141,12.293-10.141V155.27c1.814,2.169,4.857,4.09,9.946,4.09c4.185,0,7.144-1.301,9.224-2.969v5.098   c0,0,0.899,10.14,12.592,10.14c5.305,0,8.643-2.087,10.711-4.367v7.848c0,0,0.797,11.331,11.174,11.331   s12.292-11.331,12.292-11.331v-2.86c1.796,1.135,4.213,1.923,7.47,1.923c11.691,0,13.851-10.14,13.851-10.14V124.5h-0.108   L359.708,115.594L359.708,115.594z" fill="#FFEFBF"/><circle cx="214.091" cy="205.742" fill="#FFD659" r="4.829"/><circle cx="273.136" cy="192.765" fill="#FFD659" r="4.83"/><circle cx="307.273" cy="199.492" fill="#FFD659" r="4.83"/><path d="M455.371,234.008c-2.52-23.814-6.595-58.22-14.163-76.318   s-16.819-22.75-30.673-24.488c-13.854-1.738-29.49-0.418-38.216-0.903c-5.384-0.299-8.268-4.024-9.689-6.837   c-0.067-20.369-0.258-34.067-0.654-34.519c-0.091-0.103-0.61-0.206-1.51-0.308c-1.896-13.172-7.938-26.366-21.394-25.888   c-3.118,0.111-6.45,1.284-9.616,3.254c-8.667-4.58-17.597-7.371-24.656-7.371c-4.438,0-8.325,1.069-11.696,2.935   c-7.418-5.201-16.975-8.336-27.408-8.336c-3.036,0-6.262,0.278-9.571,0.798v32.339v96.229V456.77   c28.303-0.021,102.617-4.978,115.737-21.483c6.229-7.835,5.246-9.494,3.43-17.147c-0.665-2.802-2.601-13.562-4.787-28.06   c2.037-6.236,5.648-14.111,11.445-17.05c10.176-5.156,40.715-22.563,53.262-30.391s16.996-17.727,18.958-35.207   C456.131,289.952,458.24,261.135,455.371,234.008z M416.086,320.061c-10.674,6.361-28.355,16.82-38.651,18.666   c-5.324,0.953-10.489-5.141-14.237-11.246c-0.637-8.711-1.02-17.063-1.02-24.52c0-22.117,0.36-82.74,0.458-133.527   c3.339-4.764,7.927-10.227,11.488-10.354c6.341-0.228,13.821-0.204,25.143-0.096c11.322,0.108,15.957,5.175,18.189,14.238   c2.231,9.063,8.927,43.657,10.06,65.865c1.617,31.699-1.634,60.22-1.634,60.22S426.459,313.879,416.086,320.061z" enable-background="new    " fill="#272525" opacity="0.1"/></g></svg>